 <svg  version="1.0" xmlns="http://www.w3.org/2000/svg"  width="900.000000pt" height="900.000000pt" viewBox="0 0 900.000000 900.000000"  preserveAspectRatio="xMidYMid meet">  <g transform="translate(0.000000,900.000000) scale(0.100000,-0.100000)" fill="#414141" stroke="none"> <path d="M4269 7100 c-70 -4 -131 -10 -138 -14 -6 -4 -43 -11 -83 -16 -74 -9 -117 -19 -218 -47 -137 -38 -215 -65 -263 -89 -16 -8 -33 -14 -38 -14 -15 0 -191 -83 -264 -124 -22 -12 -56 -31 -75 -42 -39 -21 -222 -144 -230 -153 -3 -4 -36 -31 -75 -61 -131 -101 -302 -274 -405 -410 -19 -25 -37 -47 -40 -50 -12 -12 -133 -189 -143 -210 -4 -8 -23 -42 -42 -75 -62 -107 -137 -266 -178 -380 -29 -82 -39 -111 -46 -140 -4 -17 -13 -41 -20 -53 -16 -30 -2 -48 51 -64 50 -15 65 -1 83 73 31 123 111 314 208 490 36 67 184 290 197 299 5 3 26 29 48 59 60 80 273 294 338 341 17 12 108 80 169 127 12 10 142 93 170 110 34 20 217 110 270 133 28 11 59 25 70 30 60 27 225 76 355 107 208 48 607 67 805 38 126 -18 259 -43 295 -56 14 -4 43 -11 65 -15 22 -4 49 -11 60 -17 11 -6 33 -14 50 -18 16 -4 55 -17 85 -29 30 -12 67 -25 82 -30 81 -25 398 -201 398 -221 0 -4 -12 -25 -26 -46 -14 -21 -30 -47 -35 -58 -21 -46 -47 -80 -62 -83 -8 -2 -42 14 -74 36 -51 34 -203 112 -288 148 -100 41 -249 89 -325 104 -25 4 -58 13 -73 19 -16 6 -47 11 -70 11 -23 1 -71 7 -107 15 -134 29 -565 14 -601 -22 -6 -6 -5 -28 3 -62 l12 -52 85 7 c97 9 130 9 138 0 9 -8 6 -222 -2 -236 -3 -5 -25 -10 -48 -10 -83 0 -383 -66 -472 -105 -16 -7 -66 -27 -110 -46 -44 -18 -87 -37 -95 -44 -8 -6 -35 -21 -60 -34 -145 -77 -313 -210 -448 -356 -95 -103 -222 -278 -222 -307 0 -15 73 -59 96 -58 5 1 29 32 53 70 23 37 50 77 60 87 9 10 40 47 69 81 44 52 79 87 186 187 6 6 43 34 81 63 39 28 75 56 81 61 12 9 120 69 194 107 71 36 138 64 152 64 8 0 18 4 24 9 9 8 44 19 159 47 96 24 313 53 400 53 44 0 112 -4 150 -10 39 -6 97 -15 130 -19 84 -12 248 -55 310 -80 17 -7 46 -19 65 -27 38 -16 132 -64 195 -100 22 -12 47 -26 55 -30 36 -16 173 -128 267 -218 94 -88 204 -222 262 -317 12 -21 28 -38 34 -38 23 0 97 42 97 55 0 8 -13 33 -28 57 -16 24 -45 68 -65 98 -40 61 -48 71 -156 185 -67 70 -109 109 -187 175 -42 35 -210 147 -254 169 -25 12 -52 26 -60 31 -49 29 -205 91 -285 114 -33 9 -81 24 -106 32 -26 7 -60 14 -75 14 -16 1 -56 7 -89 15 -33 8 -96 15 -140 15 -48 0 -86 5 -93 12 -14 14 -5 226 11 246 6 8 21 11 38 7 15 -4 85 -13 156 -20 137 -16 259 -37 308 -53 17 -6 55 -18 85 -27 30 -9 69 -23 87 -31 17 -8 36 -14 41 -14 6 0 23 -6 39 -14 15 -8 75 -38 133 -66 58 -28 119 -60 135 -71 17 -10 37 -22 45 -26 81 -37 388 -305 490 -428 64 -77 180 -238 180 -251 0 -2 12 -23 26 -46 34 -54 113 -210 124 -245 5 -16 18 -53 30 -83 12 -30 25 -69 29 -85 4 -17 13 -40 19 -52 7 -12 12 -34 12 -48 0 -14 5 -36 12 -48 16 -30 36 -149 49 -287 14 -150 4 -496 -16 -570 -8 -30 -15 -69 -15 -86 0 -18 -7 -45 -15 -60 -8 -16 -15 -38 -15 -49 0 -19 -16 -74 -45 -155 -82 -228 -230 -492 -368 -655 -73 -86 -230 -241 -314 -309 -62 -49 -75 -56 -92 -46 -12 6 -21 15 -21 21 0 5 -20 43 -45 83 -25 41 -45 83 -45 93 0 10 27 40 61 67 82 66 236 221 264 266 12 19 30 41 39 49 9 7 16 19 16 25 0 19 -64 76 -85 76 -13 0 -44 -30 -84 -80 -157 -196 -391 -371 -636 -475 -16 -7 -41 -18 -55 -24 -44 -19 -114 -42 -150 -51 -19 -4 -55 -12 -80 -18 -119 -28 -179 -35 -350 -39 -147 -4 -199 -2 -253 11 -38 9 -82 16 -98 16 -17 0 -39 5 -50 11 -11 6 -41 14 -67 19 -52 9 -102 25 -145 46 -16 8 -34 14 -41 14 -25 0 -219 105 -323 174 -120 81 -304 253 -372 349 -38 53 -54 56 -105 26 -48 -28 -46 -50 11 -118 69 -83 251 -263 308 -304 162 -118 320 -209 440 -253 104 -39 248 -84 266 -84 10 0 45 -6 77 -14 108 -27 294 -35 477 -21 94 7 183 18 198 24 16 6 42 11 58 11 17 0 40 5 52 12 12 6 38 15 57 19 39 8 184 60 215 76 11 6 38 20 60 31 22 11 68 35 103 53 46 24 67 31 78 24 20 -13 114 -175 114 -197 0 -15 -25 -33 -87 -63 -58 -28 -63 -41 -38 -92 28 -55 41 -60 93 -32 105 55 305 195 391 274 93 84 250 247 287 298 140 192 223 333 300 512 7 17 20 46 28 67 9 20 16 42 16 50 0 7 7 22 15 32 8 11 15 28 15 39 0 11 7 42 16 71 32 101 37 120 45 175 4 31 13 81 18 111 6 30 15 118 22 196 13 159 -1 448 -27 541 -8 28 -14 62 -14 76 0 14 -7 49 -16 78 -8 30 -22 79 -31 109 -47 169 -153 403 -245 543 -21 32 -38 61 -38 63 0 10 -134 180 -205 260 -58 65 -117 124 -168 167 -34 29 -73 62 -87 74 -14 12 -34 29 -45 37 -20 15 -20 15 5 63 14 26 31 54 38 61 6 7 12 18 12 24 0 5 9 23 20 39 23 32 37 30 87 -10 70 -57 92 -71 105 -71 16 1 58 65 58 89 0 11 -25 37 -57 62 -32 23 -60 46 -63 49 -6 8 -191 134 -210 143 -8 4 -42 23 -75 42 -33 19 -78 43 -100 54 -77 37 -170 78 -215 96 -25 9 -56 22 -70 27 -14 6 -38 14 -55 18 -16 5 -43 13 -60 18 -249 85 -608 123 -966 102z"/> <path d="M3700 6593 c-37 -12 -169 -70 -205 -90 -22 -12 -62 -34 -90 -48 -27 -15 -64 -38 -82 -51 -17 -13 -34 -24 -38 -24 -6 0 -34 -20 -130 -93 -126 -95 -264 -228 -364 -351 -64 -79 -148 -194 -157 -216 -4 -8 -13 -22 -20 -30 -21 -26 -120 -221 -159 -315 -53 -129 -83 -214 -95 -265 -4 -19 -12 -55 -18 -80 -30 -122 -42 -192 -42 -236 0 -27 -4 -65 -9 -84 -5 -19 -12 -48 -15 -63 l-7 -28 -112 3 -112 3 -3 35 c-1 19 3 82 11 139 13 100 13 103 -7 116 -34 22 -75 28 -91 15 -10 -8 -15 -31 -15 -69 0 -31 -5 -72 -11 -91 -15 -51 -21 -374 -8 -477 6 -48 14 -124 19 -168 4 -44 13 -100 19 -125 6 -25 20 -85 32 -135 55 -239 173 -535 278 -700 39 -61 50 -79 57 -95 4 -8 20 -31 36 -51 15 -20 28 -40 28 -43 0 -12 96 -132 204 -255 58 -67 258 -261 268 -261 4 0 22 -13 40 -28 18 -16 56 -45 83 -64 28 -19 79 -54 115 -79 36 -25 72 -48 80 -52 8 -4 31 -17 50 -28 73 -45 139 -78 226 -114 49 -20 100 -42 114 -49 14 -7 52 -21 85 -31 33 -10 74 -24 92 -32 17 -7 42 -13 55 -13 12 -1 34 -7 48 -15 14 -8 36 -14 50 -15 14 0 54 -6 90 -14 153 -34 208 -39 455 -43 305 -5 450 11 705 78 193 51 447 155 588 241 34 21 64 38 67 38 12 0 203 135 290 204 107 86 268 243 351 341 58 69 174 222 174 229 0 2 17 31 38 63 21 32 49 78 63 103 13 25 30 51 37 58 6 7 12 18 12 23 0 5 18 47 41 92 22 45 45 93 49 107 5 14 18 50 30 80 19 50 40 113 72 209 17 54 38 141 48 201 49 286 60 386 60 545 -1 83 -5 179 -10 215 -5 36 -14 108 -20 160 -12 121 -33 214 -76 351 -7 26 -14 54 -14 63 0 8 -6 30 -14 48 -8 18 -21 51 -29 73 -76 204 -166 380 -292 570 -40 61 -84 122 -98 137 -13 15 -40 47 -58 72 -36 52 -52 55 -103 25 -45 -26 -46 -52 -3 -100 130 -147 246 -325 340 -524 27 -55 55 -113 63 -128 7 -16 14 -33 14 -39 0 -5 6 -24 14 -41 7 -18 21 -59 31 -92 10 -33 24 -74 32 -92 7 -17 13 -40 13 -51 0 -12 5 -33 11 -49 26 -70 78 -462 79 -597 0 -144 -43 -457 -87 -621 -13 -49 -28 -107 -32 -128 -5 -21 -14 -44 -20 -50 -6 -6 -11 -19 -11 -29 0 -9 -7 -34 -16 -55 -9 -21 -23 -54 -31 -73 -56 -132 -84 -189 -94 -196 -5 -3 -9 -12 -9 -21 0 -9 -6 -24 -14 -32 -7 -9 -28 -43 -46 -76 -48 -87 -162 -248 -244 -345 -79 -93 -273 -275 -382 -357 -144 -109 -272 -188 -414 -255 -58 -28 -113 -54 -122 -59 -42 -21 -275 -101 -323 -110 -22 -4 -58 -12 -80 -18 -261 -67 -661 -79 -925 -29 -30 6 -75 14 -100 18 -25 3 -65 12 -90 19 -117 33 -158 45 -195 58 -22 9 -58 22 -80 30 -22 8 -53 21 -68 29 -16 8 -33 14 -39 14 -12 0 -186 87 -238 118 -19 12 -42 25 -50 29 -8 4 -43 26 -78 50 -35 24 -67 43 -72 43 -4 0 -10 4 -12 8 -1 4 -43 39 -93 77 -105 81 -317 289 -396 390 -183 232 -328 493 -418 755 -28 80 -70 233 -81 290 -4 25 -13 70 -19 100 -17 89 -41 300 -41 363 0 47 3 57 18 58 9 0 59 3 110 5 113 7 122 1 122 -70 0 -61 17 -229 32 -306 6 -30 14 -81 18 -114 5 -32 13 -63 19 -69 6 -6 11 -22 11 -36 0 -27 38 -151 52 -165 4 -6 8 -16 8 -24 0 -13 9 -37 50 -127 123 -273 231 -433 450 -668 56 -60 206 -191 270 -237 78 -55 156 -107 170 -113 8 -4 29 -15 45 -25 82 -50 297 -152 320 -152 8 0 29 -6 47 -14 18 -8 58 -21 88 -30 30 -9 77 -23 103 -31 26 -8 58 -15 71 -15 13 0 36 -4 52 -10 38 -12 312 -40 400 -40 132 0 474 44 535 69 13 5 41 12 61 16 60 9 77 31 69 90 l-6 50 -40 -1 c-38 -2 -96 -14 -160 -36 -16 -5 -59 -14 -95 -19 -36 -5 -87 -13 -115 -18 -82 -16 -440 -13 -510 4 -33 8 -75 14 -94 15 -45 0 -213 43 -303 76 -91 34 -125 47 -163 64 -22 11 -60 28 -85 39 -25 11 -67 34 -95 50 -27 17 -57 34 -65 38 -37 17 -211 141 -270 192 -112 98 -246 239 -323 342 -44 59 -102 143 -111 160 -3 8 -15 28 -25 44 -35 55 -151 297 -151 315 0 5 -6 24 -14 42 -99 239 -149 638 -116 938 18 173 46 300 97 445 13 39 27 79 30 90 6 25 18 52 84 189 102 211 299 475 462 618 40 35 74 66 77 69 12 13 168 128 205 149 22 13 42 27 45 31 8 11 230 122 289 145 72 27 78 39 52 97 -22 48 -24 49 -51 40z"/> <path d="M3780 5648 c0 -8 4 -18 9 -23 5 -6 31 -50 57 -100 40 -77 48 -101 53 -165 5 -68 8 -75 28 -78 27 -4 39 30 30 85 -5 30 4 53 59 159 52 99 62 125 50 130 -38 14 -57 -7 -103 -113 -10 -25 -24 -42 -32 -40 -8 1 -27 29 -43 62 -17 33 -33 67 -38 75 -9 20 -70 26 -70 8z"/> <path d="M4210 5636 c-65 -44 -83 -81 -83 -162 0 -97 26 -140 113 -184 105 -53 240 23 255 145 4 29 4 68 0 86 -9 43 -51 109 -69 109 -7 0 -19 7 -26 15 -9 11 -33 15 -84 15 -59 0 -77 -4 -106 -24z m178 -52 c28 -18 52 -71 52 -115 0 -50 -29 -98 -71 -119 -47 -25 -69 -25 -112 -3 -47 25 -70 58 -74 112 -10 116 109 188 205 125z"/> <path d="M4567 5653 c-4 -3 -7 -61 -7 -129 0 -191 32 -243 153 -246 39 -1 61 4 79 18 50 37 56 59 59 214 l2 145 -29 0 -29 0 2 -90 c1 -49 0 -113 -3 -142 -5 -46 -9 -55 -38 -73 -45 -27 -72 -25 -107 9 l-29 29 0 136 c0 136 0 136 -23 136 -13 0 -27 -3 -30 -7z"/> <path d="M4944 5647 c-2 -7 -3 -94 -2 -192 l3 -180 25 0 c24 0 25 3 28 70 2 39 7 74 12 78 18 19 47 -6 83 -68 34 -59 64 -85 98 -85 19 0 8 37 -26 90 -19 30 -35 58 -35 62 0 5 15 24 34 42 39 40 49 79 31 122 -24 59 -57 74 -157 74 -63 0 -90 -4 -94 -13z m188 -71 c23 -27 23 -29 -8 -66 -24 -28 -32 -31 -73 -28 l-46 3 -3 54 c-2 36 1 57 10 63 23 14 101 -2 120 -26z"/> <path d="M3665 5029 c-76 -10 -165 -49 -216 -94 -42 -37 -110 -126 -123 -160 -38 -100 -47 -246 -21 -320 8 -22 15 -47 15 -55 0 -33 81 -140 142 -189 35 -28 69 -50 76 -51 7 0 23 -6 35 -14 12 -7 57 -19 99 -26 151 -25 316 30 416 139 42 45 102 168 102 208 0 17 5 44 11 62 16 46 -6 180 -43 259 -31 65 -117 164 -160 182 -12 5 -30 14 -38 19 -62 37 -191 55 -295 40z m199 -149 c77 -32 106 -57 152 -130 28 -43 29 -50 29 -165 -1 -103 -4 -127 -23 -166 -22 -47 -107 -139 -128 -139 -7 0 -25 -7 -40 -15 -47 -24 -171 -20 -235 9 -64 28 -128 94 -158 161 -32 72 -30 217 4 288 40 86 107 145 190 170 79 24 128 20 209 -13z"/> <path d="M4680 5031 c-30 -4 -64 -12 -75 -18 -11 -6 -41 -20 -67 -32 -68 -32 -152 -119 -191 -199 -31 -65 -32 -70 -32 -202 0 -132 1 -137 32 -201 33 -68 121 -174 157 -190 12 -5 28 -13 36 -18 48 -27 83 -39 148 -51 117 -21 248 10 335 78 21 17 41 32 45 34 15 6 79 94 94 128 36 84 42 108 43 180 l0 75 -225 3 c-124 1 -235 0 -247 -3 -20 -5 -23 -12 -23 -54 0 -30 5 -53 14 -61 11 -8 59 -11 165 -9 83 2 153 0 157 -3 15 -16 -33 -105 -81 -153 -150 -146 -396 -93 -487 105 -16 35 -21 65 -21 140 0 84 3 101 27 145 63 115 145 167 265 169 109 1 154 -15 217 -80 l54 -54 74 0 c41 0 77 4 80 9 15 24 -105 179 -157 201 -12 6 -29 14 -37 19 -63 38 -189 55 -300 42z"/> <path d="M5675 5030 c-56 -9 -120 -31 -137 -48 -7 -7 -18 -12 -24 -12 -24 0 -130 -115 -156 -170 -50 -107 -61 -155 -54 -238 8 -84 27 -167 48 -203 43 -76 124 -159 189 -193 55 -28 170 -56 233 -56 65 0 164 30 246 75 71 39 162 169 183 260 57 259 -47 477 -271 564 -54 21 -184 32 -257 21z m194 -146 c24 -8 53 -19 64 -25 86 -47 158 -212 137 -316 -20 -98 -28 -122 -58 -165 -32 -47 -91 -98 -114 -98 -7 0 -22 -7 -32 -15 -14 -10 -45 -15 -100 -15 -69 0 -88 4 -143 31 -198 97 -234 404 -64 549 85 72 197 92 310 54z"/> <path d="M2767 5023 c-4 -3 -7 -203 -7 -444 0 -407 1 -439 18 -447 22 -11 412 -6 424 6 5 5 8 31 6 58 l-3 49 -150 5 -150 5 -3 388 -2 387 -63 0 c-35 0 -67 -3 -70 -7z"/> <path d="M3127 3925 c-62 -43 -78 -91 -56 -166 20 -65 49 -84 129 -84 58 0 72 4 93 24 46 42 9 70 -40 31 -61 -48 -143 -5 -143 74 0 62 24 89 82 90 32 1 52 -5 66 -17 22 -20 53 -20 59 0 3 7 -15 26 -38 42 -53 39 -100 41 -152 6z"/> <path d="M3432 3932 c-84 -45 -97 -169 -24 -235 51 -46 136 -40 187 13 24 26 28 37 29 92 1 72 -17 106 -72 132 -42 20 -79 20 -120 -2z m136 -68 c32 -36 29 -82 -7 -122 -23 -24 -38 -32 -64 -32 -95 0 -130 137 -45 175 43 19 87 11 116 -21z"/> <path d="M3686 3943 c-3 -4 -6 -53 -6 -110 0 -119 11 -147 66 -162 50 -14 101 3 124 42 16 26 20 51 20 130 0 96 0 98 -22 95 -22 -3 -23 -9 -28 -106 -5 -111 -11 -122 -62 -122 -45 0 -58 31 -58 136 0 70 -3 93 -14 97 -8 3 -17 3 -20 0z"/> <path d="M3954 3937 c-2 -7 -3 -69 -2 -138 l3 -124 45 -6 c48 -7 84 5 77 24 -2 7 -19 13 -38 15 -19 2 -38 7 -43 12 -5 5 -8 56 -7 113 2 87 -1 105 -14 111 -9 3 -18 0 -21 -7z"/> <path d="M4133 3943 c-10 -3 -13 -39 -13 -128 0 -147 1 -149 95 -143 57 3 70 8 97 35 29 30 31 37 30 98 -1 76 -13 97 -77 126 -38 17 -105 24 -132 12z m108 -53 c25 -7 41 -20 54 -44 21 -39 16 -72 -20 -110 -21 -23 -32 -27 -68 -24 l-42 3 -3 84 c-4 104 4 112 79 91z"/> <path d="M4500 3931 c-13 -25 -13 -201 0 -236 10 -27 12 -27 85 -23 60 3 77 7 89 23 20 26 20 74 0 96 -14 16 -14 20 0 48 32 61 -19 111 -113 111 -39 0 -53 -4 -61 -19z m114 -41 c34 -13 35 -47 2 -56 -57 -14 -95 16 -66 51 15 18 29 19 64 5z m24 -124 c11 -11 11 -18 2 -35 -9 -18 -19 -22 -53 -19 -35 3 -43 7 -45 26 -5 35 16 55 52 48 17 -4 37 -13 44 -20z"/> <path d="M4753 3943 c-10 -3 -13 -40 -13 -134 0 -126 0 -129 23 -134 43 -11 122 -1 122 15 0 11 -13 16 -47 18 -52 3 -68 24 -48 62 9 17 17 20 39 15 19 -4 32 -1 40 9 19 23 4 36 -39 36 -31 0 -40 4 -46 22 -9 29 21 51 58 43 31 -7 56 23 36 43 -12 12 -101 15 -125 5z"/> <path d="M5332 3938 c-10 -13 -15 -217 -5 -250 4 -15 16 -18 74 -18 62 0 69 2 69 19 0 17 -8 20 -52 23 -51 3 -53 4 -53 33 0 27 4 30 39 36 37 6 62 27 48 41 -4 4 -25 8 -47 10 -35 3 -40 6 -43 30 -3 22 2 29 22 34 14 3 30 3 35 -1 14 -8 51 13 51 29 0 8 -7 17 -16 20 -28 11 -111 6 -122 -6z"/> <path d="M5532 3938 c-8 -8 -12 -51 -12 -129 0 -94 3 -119 16 -130 21 -17 34 3 34 54 0 24 5 37 13 37 15 0 47 -31 47 -46 1 -17 38 -54 54 -54 22 0 20 32 -4 63 -25 32 -25 33 5 69 41 48 30 104 -25 133 -35 18 -111 20 -128 3z m102 -48 c38 -14 34 -48 -6 -64 -42 -18 -58 -11 -58 28 0 48 14 56 64 36z"/> <path d="M5782 3938 c-18 -18 -16 -242 2 -257 21 -18 131 -10 131 9 0 11 -14 16 -50 20 -44 4 -50 8 -53 29 -5 30 22 53 54 45 16 -4 25 0 34 15 13 24 6 28 -50 33 -28 2 -36 8 -38 25 -4 26 28 43 79 43 22 0 29 5 29 19 0 10 -7 22 -16 25 -27 10 -110 6 -122 -6z"/> <path d="M5052 3808 c3 -110 6 -133 18 -133 11 0 16 14 20 50 l5 50 54 3 c61 4 74 -7 65 -51 -7 -32 10 -59 32 -50 11 4 14 32 14 135 0 128 0 129 -22 126 -20 -3 -23 -9 -23 -53 l0 -50 -62 -3 -63 -3 0 56 c0 49 -2 55 -20 55 -20 0 -20 -5 -18 -132z"/> </g> </svg> 